<?xml version="1.0" encoding="UTF-8" standalone="no"?>
<!-- Created with Inkscape (http://www.inkscape.org/) -->

<svg
   xmlns:dc="http://purl.org/dc/elements/1.1/"
   xmlns:cc="http://creativecommons.org/ns#"
   xmlns:rdf="http://www.w3.org/1999/02/22-rdf-syntax-ns#"
   xmlns:svg="http://www.w3.org/2000/svg"
   xmlns="http://www.w3.org/2000/svg"
   version="1.1"
   width="1"
   height="9"
   id="svg3832">
  <defs
     id="defs3834" />
  <metadata
     id="metadata3837">
    <rdf:RDF>
      <cc:Work
         rdf:about="">
        <dc:format>image/svg+xml</dc:format>
        <dc:type
           rdf:resource="http://purl.org/dc/dcmitype/StillImage" />
        <dc:title></dc:title>
      </cc:Work>
    </rdf:RDF>
  </metadata>
  <g
     transform="translate(-325.21429,-525.00504)"
     id="layer1">
    <path
       d="m 278.99152,182.6524 a 0.56821078,0.72604716 0 1 1 -1.13642,0 0.56821078,0.72604716 0 1 1 1.13642,0 z"
       transform="matrix(0.87995515,0,0,0.6886605,80.714261,399.71954)"
       id="path3037"
       style="fill:#000000;fill-opacity:1;stroke:none" />
    <path
       d="m 278.99152,182.6524 a 0.56821078,0.72604716 0 1 1 -1.13642,0 0.56821078,0.72604716 0 1 1 1.13642,0 z"
       transform="matrix(0.87995515,0,0,0.6886605,80.714261,403.71954)"
       id="path3037-3"
       style="fill:#000000;fill-opacity:1;stroke:none" />
    <path
       d="m 278.99152,182.6524 a 0.56821078,0.72604716 0 1 1 -1.13642,0 0.56821078,0.72604716 0 1 1 1.13642,0 z"
       transform="matrix(0.87995515,0,0,0.6886605,80.714261,407.71954)"
       id="path3037-35"
       style="fill:#000000;fill-opacity:1;stroke:none" />
  </g>
</svg>
